<svg width="192" height="192" viewBox="0 0 192 192" fill="none" xmlns="http://www.w3.org/2000/svg">
<mask id="path-1-inside-1_60_14" fill="white">
<path d="M179.024 96C186.19 96 192.09 101.836 191.124 108.937C188.74 126.47 181.541 143.094 170.209 156.902C156.119 174.07 136.512 185.822 114.729 190.155C92.9453 194.488 70.3335 191.134 50.7459 180.664C31.1584 170.195 15.807 153.257 7.30757 132.738C-1.19187 112.218 -2.31353 89.3864 4.13373 68.1327C10.581 46.8789 24.1982 28.5182 42.6652 16.1789C61.1323 3.83965 83.3065 -1.7147 105.41 0.462265C123.186 2.21306 140.031 8.87732 154.115 19.5888C159.819 23.9272 159.774 32.2258 154.707 37.2934V37.2934C149.639 42.3609 141.474 42.2403 135.56 38.1929C125.893 31.5776 114.66 27.4515 102.866 26.2899C86.738 24.7014 70.5584 28.7542 57.0837 37.7577C43.6091 46.7612 33.6731 60.1583 28.9688 75.6663C24.2645 91.1743 25.0829 107.834 31.2846 122.806C37.4863 137.778 48.6876 150.137 62.9799 157.776C77.2722 165.416 93.7711 167.863 109.666 164.701C125.56 161.54 139.867 152.965 150.147 140.438C157.666 131.276 162.691 120.416 164.849 108.903C166.169 101.859 171.857 96 179.024 96V96Z"/>
</mask>
<path d="M179.024 96C186.19 96 192.09 101.836 191.124 108.937C188.74 126.47 181.541 143.094 170.209 156.902C156.119 174.07 136.512 185.822 114.729 190.155C92.9453 194.488 70.3335 191.134 50.7459 180.664C31.1584 170.195 15.807 153.257 7.30757 132.738C-1.19187 112.218 -2.31353 89.3864 4.13373 68.1327C10.581 46.8789 24.1982 28.5182 42.6652 16.1789C61.1323 3.83965 83.3065 -1.7147 105.41 0.462265C123.186 2.21306 140.031 8.87732 154.115 19.5888C159.819 23.9272 159.774 32.2258 154.707 37.2934V37.2934C149.639 42.3609 141.474 42.2403 135.56 38.1929C125.893 31.5776 114.66 27.4515 102.866 26.2899C86.738 24.7014 70.5584 28.7542 57.0837 37.7577C43.6091 46.7612 33.6731 60.1583 28.9688 75.6663C24.2645 91.1743 25.0829 107.834 31.2846 122.806C37.4863 137.778 48.6876 150.137 62.9799 157.776C77.2722 165.416 93.7711 167.863 109.666 164.701C125.56 161.54 139.867 152.965 150.147 140.438C157.666 131.276 162.691 120.416 164.849 108.903C166.169 101.859 171.857 96 179.024 96V96Z" fill="#5A2020" stroke="black" stroke-width="12" mask="url(#path-1-inside-1_60_14)"/>
<g filter="url(#filter0_d_60_14)">
<mask id="path-2-outside-2_60_14" maskUnits="userSpaceOnUse" x="44" y="22" width="114" height="139" fill="black">
<rect fill="white" x="44" y="22" width="114" height="139"/>
<path d="M79.3402 150.342C79.3402 152.1 78.9594 153.33 78.1977 154.033C77.4945 154.678 76.2641 155 74.5062 155H55.7855C54.0277 155 52.768 154.678 52.0062 154.033C51.3031 153.33 50.9516 152.1 50.9516 150.342V52.5195C50.9516 46.6602 51.4789 42.0313 52.5336 38.6328C53.6469 35.1758 55.7562 32.7148 58.8617 31.25C62.0258 29.7266 66.6254 28.9648 72.6605 28.9648H95.9516C126.537 28.9648 141.83 40.7129 141.83 64.209C141.83 71.3574 140.629 77.2168 138.227 81.7871C135.825 86.3574 132.836 89.9316 129.262 92.5098C125.688 95.0293 122.172 96.9336 118.715 98.2227V98.6621C122.641 101.24 126.362 104.639 129.877 108.857C133.452 113.018 136.674 117.559 139.545 122.48C142.416 127.344 144.848 132.178 146.84 136.982C148.832 141.729 150.209 145.977 150.971 149.727C151.323 151.484 151.323 152.803 150.971 153.682C150.678 154.561 149.682 155 147.983 155H127.68C126.157 155 124.809 154.678 123.637 154.033C122.524 153.389 121.498 151.895 120.561 149.551C116.108 138.359 110.981 129.248 105.18 122.217C99.3793 115.127 93.7836 109.443 88.393 105.166C84.9359 102.412 83.2074 100.449 83.2074 99.2773C83.2074 98.3398 83.7641 97.0508 84.8773 95.4102C85.5805 94.4141 86.6059 93.2129 87.9535 91.8066C89.3012 90.4004 90.473 89.3457 91.4691 88.6426C92.4652 87.9395 93.2562 87.5 93.8422 87.3242C94.4867 87.1484 95.4535 87.0605 96.7426 87.0605C101.079 87.0605 104.682 85.5664 107.553 82.5781C110.483 79.5898 111.948 74.873 111.948 68.4277C111.948 62.334 110.395 57.8809 107.289 55.0684C104.243 52.1973 100.024 50.7617 94.6332 50.7617H89.3598C85.4926 50.7617 82.8559 51.582 81.4496 53.2227C80.0434 54.8633 79.3402 57.6758 79.3402 61.6602V150.342Z"/>
</mask>
<path d="M79.3402 150.342C79.3402 152.1 78.9594 153.33 78.1977 154.033C77.4945 154.678 76.2641 155 74.5062 155H55.7855C54.0277 155 52.768 154.678 52.0062 154.033C51.3031 153.33 50.9516 152.1 50.9516 150.342V52.5195C50.9516 46.6602 51.4789 42.0313 52.5336 38.6328C53.6469 35.1758 55.7562 32.7148 58.8617 31.25C62.0258 29.7266 66.6254 28.9648 72.6605 28.9648H95.9516C126.537 28.9648 141.83 40.7129 141.83 64.209C141.83 71.3574 140.629 77.2168 138.227 81.7871C135.825 86.3574 132.836 89.9316 129.262 92.5098C125.688 95.0293 122.172 96.9336 118.715 98.2227V98.6621C122.641 101.24 126.362 104.639 129.877 108.857C133.452 113.018 136.674 117.559 139.545 122.48C142.416 127.344 144.848 132.178 146.84 136.982C148.832 141.729 150.209 145.977 150.971 149.727C151.323 151.484 151.323 152.803 150.971 153.682C150.678 154.561 149.682 155 147.983 155H127.68C126.157 155 124.809 154.678 123.637 154.033C122.524 153.389 121.498 151.895 120.561 149.551C116.108 138.359 110.981 129.248 105.18 122.217C99.3793 115.127 93.7836 109.443 88.393 105.166C84.9359 102.412 83.2074 100.449 83.2074 99.2773C83.2074 98.3398 83.7641 97.0508 84.8773 95.4102C85.5805 94.4141 86.6059 93.2129 87.9535 91.8066C89.3012 90.4004 90.473 89.3457 91.4691 88.6426C92.4652 87.9395 93.2562 87.5 93.8422 87.3242C94.4867 87.1484 95.4535 87.0605 96.7426 87.0605C101.079 87.0605 104.682 85.5664 107.553 82.5781C110.483 79.5898 111.948 74.873 111.948 68.4277C111.948 62.334 110.395 57.8809 107.289 55.0684C104.243 52.1973 100.024 50.7617 94.6332 50.7617H89.3598C85.4926 50.7617 82.8559 51.582 81.4496 53.2227C80.0434 54.8633 79.3402 57.6758 79.3402 61.6602V150.342Z" fill="#1F8B4A"/>
<path d="M78.1977 154.033L82.252 158.456L82.2597 158.449L82.2673 158.442L78.1977 154.033ZM52.0062 154.033L47.7636 158.276L47.9401 158.452L48.1306 158.614L52.0062 154.033ZM52.5336 38.6328L46.8224 36.7936L46.8127 36.824L46.8032 36.8544L52.5336 38.6328ZM58.8617 31.25L61.4214 36.6766L61.4431 36.6664L61.4646 36.656L58.8617 31.25ZM129.262 92.5098L132.719 97.4138L132.746 97.395L132.772 97.3759L129.262 92.5098ZM118.715 98.2227L116.619 92.6008L112.715 94.0564V98.2227H118.715ZM118.715 98.6621H112.715V101.9L115.422 103.677L118.715 98.6621ZM129.877 108.857L125.268 112.699L125.297 112.733L125.326 112.767L129.877 108.857ZM139.545 122.48L134.363 125.504L134.371 125.517L134.379 125.531L139.545 122.48ZM146.84 136.982L141.298 139.281L141.303 139.293L141.308 139.305L146.84 136.982ZM150.971 149.727L156.855 148.55L156.853 148.541L156.851 148.532L150.971 149.727ZM150.971 153.682L145.4 151.453L145.335 151.617L145.279 151.784L150.971 153.682ZM123.637 154.033L120.631 159.226L120.688 159.259L120.746 159.29L123.637 154.033ZM120.561 149.551L114.986 151.769L114.99 151.779L120.561 149.551ZM105.18 122.217L100.536 126.016L100.544 126.026L100.552 126.035L105.18 122.217ZM88.393 105.166L84.6545 109.859L84.6635 109.866L88.393 105.166ZM84.8773 95.4102L79.9755 91.9501L79.9436 91.9953L79.9125 92.0411L84.8773 95.4102ZM93.8422 87.3242L92.2635 81.5356L92.1905 81.5555L92.1181 81.5773L93.8422 87.3242ZM107.553 82.5781L103.269 78.3777L103.247 78.3993L103.226 78.4212L107.553 82.5781ZM107.289 55.0684L103.175 59.4351L103.218 59.4758L103.262 59.5156L107.289 55.0684ZM73.3402 150.342C73.3402 150.822 73.284 150.935 73.3229 150.809C73.3698 150.657 73.5652 150.144 74.128 149.624L82.2673 158.442C84.8874 156.024 85.3402 152.668 85.3402 150.342H73.3402ZM74.1433 149.61C74.7112 149.09 75.2004 148.961 75.2273 148.954C75.2537 148.947 75.2116 148.96 75.0824 148.974C74.9547 148.988 74.7658 149 74.5062 149V161C76.6364 161 79.8245 160.681 82.252 158.456L74.1433 149.61ZM74.5062 149H55.7855V161H74.5062V149ZM55.7855 149C55.5265 149 55.3333 148.988 55.1977 148.974C55.0611 148.959 55.0035 148.944 55.0094 148.945C55.0149 148.947 55.1081 148.971 55.2597 149.043C55.414 149.117 55.6362 149.245 55.8819 149.453L48.1306 158.614C50.5395 160.652 53.5828 161 55.7855 161V149ZM56.2489 149.791C56.7963 150.338 56.9584 150.844 56.9844 150.935C57.0068 151.013 56.9516 150.855 56.9516 150.342H44.9516C44.9516 152.566 45.333 155.845 47.7636 158.276L56.2489 149.791ZM56.9516 150.342V52.5195H44.9516V150.342H56.9516ZM56.9516 52.5195C56.9516 46.927 57.4659 42.9826 58.264 40.4112L46.8032 36.8544C45.4919 41.0799 44.9516 46.3933 44.9516 52.5195H56.9516ZM58.2448 40.472C58.8821 38.4929 59.9122 37.3885 61.4214 36.6766L56.302 25.8234C51.6003 28.0412 48.4116 31.8587 46.8224 36.7936L58.2448 40.472ZM61.4646 36.656C63.4303 35.7096 66.9673 34.9648 72.6605 34.9648V22.9648C66.2835 22.9648 60.6213 23.7436 56.2588 25.844L61.4646 36.656ZM72.6605 34.9648H95.9516V22.9648H72.6605V34.9648ZM95.9516 34.9648C110.645 34.9648 120.564 37.8157 126.706 42.534C132.548 47.022 135.83 53.8717 135.83 64.209H147.83C147.83 51.0502 143.467 40.2778 134.016 33.0178C124.865 25.988 111.844 22.9648 95.9516 22.9648V34.9648ZM135.83 64.209C135.83 70.7389 134.726 75.5527 132.916 78.9954L143.538 84.5788C146.533 78.8808 147.83 71.976 147.83 64.209H135.83ZM132.916 78.9954C130.872 82.8848 128.455 85.6942 125.752 87.6436L132.772 97.3759C137.218 94.1691 140.778 89.8301 143.538 84.5788L132.916 78.9954ZM125.805 87.6057C122.577 89.8817 119.514 91.5212 116.619 92.6008L120.812 103.845C124.83 102.346 128.799 100.177 132.719 97.4138L125.805 87.6057ZM112.715 98.2227V98.6621H124.715V98.2227H112.715ZM115.422 103.677C118.778 105.882 122.068 108.859 125.268 112.699L134.487 105.016C130.655 100.418 126.504 96.5989 122.009 93.6469L115.422 103.677ZM125.326 112.767C128.655 116.641 131.668 120.884 134.363 125.504L144.728 119.457C141.681 114.233 138.249 109.394 134.428 104.947L125.326 112.767ZM134.379 125.531C137.119 130.173 139.422 134.756 141.298 139.281L152.383 134.684C150.274 129.599 147.714 124.515 144.712 119.43L134.379 125.531ZM141.308 139.305C143.196 143.803 144.43 147.664 145.091 150.921L156.851 148.532C155.989 144.29 154.469 139.654 152.373 134.66L141.308 139.305ZM145.088 150.903C145.148 151.204 145.185 151.449 145.208 151.644C145.23 151.84 145.235 151.967 145.235 152.034C145.235 152.102 145.23 152.082 145.244 151.992C145.259 151.902 145.297 151.71 145.4 151.453L156.542 155.91C157.566 153.351 157.262 150.585 156.855 148.55L145.088 150.903ZM145.279 151.784C145.492 151.146 145.852 150.552 146.329 150.064C146.79 149.592 147.256 149.325 147.582 149.181C148.155 148.928 148.417 149 147.983 149V161C149.248 161 150.858 160.852 152.426 160.16C154.175 159.388 155.887 157.907 156.663 155.579L145.279 151.784ZM147.983 149H127.68V161H147.983V149ZM127.68 149C127.025 149 126.698 148.869 126.529 148.776L120.746 159.29C122.92 160.487 125.288 161 127.68 161V149ZM126.643 148.841C127.108 149.11 127.181 149.326 126.98 149.034C126.794 148.763 126.495 148.231 126.132 147.322L114.99 151.779C116.019 154.351 117.67 157.512 120.631 159.226L126.643 148.841ZM126.136 147.333C121.522 135.736 116.11 126.037 109.808 118.398L100.552 126.035C105.852 132.459 110.694 140.982 114.986 151.769L126.136 147.333ZM109.824 118.417C103.835 111.097 97.9386 105.081 92.1224 100.466L84.6635 109.866C89.6286 113.806 94.9239 119.157 100.536 126.016L109.824 118.417ZM92.1314 100.473C90.5182 99.1879 89.5333 98.2611 89.0068 97.6631C88.7438 97.3646 88.7187 97.2859 88.7857 97.4074C88.8226 97.4743 89.2074 98.1602 89.2074 99.2773H77.2074C77.2074 100.98 77.8083 102.351 78.2773 103.202C78.7764 104.107 79.3995 104.911 80.0009 105.594C81.2028 106.959 82.8107 108.39 84.6545 109.859L92.1314 100.473ZM89.2074 99.2773C89.2074 99.6285 89.1566 99.8678 89.1326 99.9635C89.1081 100.062 89.0958 100.073 89.1333 99.986C89.2149 99.797 89.4184 99.4038 89.8422 98.7792L79.9125 92.0411C78.73 93.7837 77.2074 96.3869 77.2074 99.2773H89.2074ZM89.7791 98.8703C90.2393 98.2184 91.0381 97.2596 92.2854 95.9581L83.6216 87.6552C82.1736 89.1662 80.9216 90.6098 79.9755 91.9501L89.7791 98.8703ZM92.2854 95.9581C93.5045 94.686 94.3758 93.935 94.9292 93.5444L88.009 83.7408C86.5703 84.7564 85.0978 86.1148 83.6216 87.6552L92.2854 95.9581ZM94.9292 93.5444C95.3075 93.2774 95.5676 93.1171 95.7233 93.0306C95.7981 92.9891 95.8261 92.9772 95.8119 92.9835C95.8006 92.9886 95.7154 93.0264 95.5663 93.0712L92.1181 81.5773C90.5618 82.0441 89.1174 82.9584 88.009 83.7408L94.9292 93.5444ZM95.4209 93.1128C95.2898 93.1486 95.3184 93.1269 95.5939 93.1018C95.8493 93.0786 96.2246 93.0605 96.7426 93.0605V81.0605C95.3172 81.0605 93.7007 81.1437 92.2635 81.5356L95.4209 93.1128ZM96.7426 93.0605C102.627 93.0605 107.82 90.9606 111.88 86.7351L103.226 78.4212C101.544 80.1722 99.5304 81.0605 96.7426 81.0605V93.0605ZM111.838 86.7786C116.335 82.1914 117.948 75.6167 117.948 68.4277H105.948C105.948 74.1294 104.631 76.9883 103.269 78.3777L111.838 86.7786ZM117.948 68.4277C117.948 61.422 116.16 55.0074 111.317 50.6211L103.262 59.5156C104.63 60.7543 105.948 63.246 105.948 68.4277H117.948ZM111.404 50.7016C106.952 46.5058 101.098 44.7617 94.6332 44.7617V56.7617C98.9501 56.7617 101.534 57.8888 103.175 59.4351L111.404 50.7016ZM94.6332 44.7617H89.3598V56.7617H94.6332V44.7617ZM89.3598 44.7617C85.0381 44.7617 80.0758 45.6059 76.8941 49.3179L86.0051 57.1274C85.7953 57.3722 85.7274 57.2731 86.2642 57.1061C86.826 56.9313 87.8084 56.7617 89.3598 56.7617V44.7617ZM76.8941 49.3179C74.0396 52.6481 73.3402 57.3119 73.3402 61.6602H85.3402C85.3402 59.9898 85.4908 58.8082 85.6884 58.0177C85.8877 57.2206 86.0789 57.0413 86.0051 57.1274L76.8941 49.3179ZM73.3402 61.6602V150.342H85.3402V61.6602H73.3402Z" fill="black" mask="url(#path-2-outside-2_60_14)"/>
</g>
<defs>
<filter id="filter0_d_60_14" x="50.9517" y="28.9648" width="109.547" height="139.035" filterUnits="userSpaceOnUse" color-interpolation-filters="sRGB">
<feFlood flood-opacity="0" result="BackgroundImageFix"/>
<feColorMatrix in="SourceAlpha" type="matrix" values="0 0 0 0 0 0 0 0 0 0 0 0 0 0 0 0 0 0 127 0" result="hardAlpha"/>
<feOffset dx="5" dy="9"/>
<feGaussianBlur stdDeviation="2"/>
<feComposite in2="hardAlpha" operator="out"/>
<feColorMatrix type="matrix" values="0 0 0 0 0 0 0 0 0 0 0 0 0 0 0 0 0 0 0.25 0"/>
<feBlend mode="normal" in2="BackgroundImageFix" result="effect1_dropShadow_60_14"/>
<feBlend mode="normal" in="SourceGraphic" in2="effect1_dropShadow_60_14" result="shape"/>
</filter>
</defs>
</svg>
