<svg width="408" height="408" viewBox="0 0 408 408" fill="none" xmlns="http://www.w3.org/2000/svg">
<g filter="url(#filter0_i_1_16)">
<circle cx="204" cy="200" r="200" fill="#D9D9D9" fill-opacity="0.5"/>
</g>
<g filter="url(#filter1_d_1_16)">
<mask id="path-2-inside-1_1_16" fill="white">
<path d="M404 200C404 239.556 392.27 278.224 370.294 311.114C348.318 344.004 317.082 369.638 280.537 384.776C243.991 399.913 203.778 403.874 164.982 396.157C126.186 388.44 90.5491 369.392 62.5786 341.421C34.6081 313.451 15.56 277.814 7.84294 239.018C0.1259 200.222 4.08657 160.009 19.2241 123.463C34.3616 86.9181 59.9961 55.6824 92.886 33.7061C125.776 11.7298 164.444 -4.71704e-07 204 0V50C174.333 50 145.332 58.7973 120.664 75.2796C95.9971 91.7618 76.7712 115.189 65.4181 142.597C54.0649 170.006 51.0944 200.166 56.8822 229.264C62.67 258.361 76.9561 285.088 97.934 306.066C118.912 327.044 145.639 341.33 174.736 347.118C203.834 352.906 233.994 349.935 261.403 338.582C288.811 327.229 312.238 308.003 328.72 283.336C345.203 258.668 354 229.667 354 200H404Z"/>
</mask>
<path d="M404 200C404 239.556 392.27 278.224 370.294 311.114C348.318 344.004 317.082 369.638 280.537 384.776C243.991 399.913 203.778 403.874 164.982 396.157C126.186 388.44 90.5491 369.392 62.5786 341.421C34.6081 313.451 15.56 277.814 7.84294 239.018C0.1259 200.222 4.08657 160.009 19.2241 123.463C34.3616 86.9181 59.9961 55.6824 92.886 33.7061C125.776 11.7298 164.444 -4.71704e-07 204 0V50C174.333 50 145.332 58.7973 120.664 75.2796C95.9971 91.7618 76.7712 115.189 65.4181 142.597C54.0649 170.006 51.0944 200.166 56.8822 229.264C62.67 258.361 76.9561 285.088 97.934 306.066C118.912 327.044 145.639 341.33 174.736 347.118C203.834 352.906 233.994 349.935 261.403 338.582C288.811 327.229 312.238 308.003 328.72 283.336C345.203 258.668 354 229.667 354 200H404Z" fill="#D9D9D9"/>
<path d="M404 200C404 239.556 392.27 278.224 370.294 311.114C348.318 344.004 317.082 369.638 280.537 384.776C243.991 399.913 203.778 403.874 164.982 396.157C126.186 388.44 90.5491 369.392 62.5786 341.421C34.6081 313.451 15.56 277.814 7.84294 239.018C0.1259 200.222 4.08657 160.009 19.2241 123.463C34.3616 86.9181 59.9961 55.6824 92.886 33.7061C125.776 11.7298 164.444 -4.71704e-07 204 0V50C174.333 50 145.332 58.7973 120.664 75.2796C95.9971 91.7618 76.7712 115.189 65.4181 142.597C54.0649 170.006 51.0944 200.166 56.8822 229.264C62.67 258.361 76.9561 285.088 97.934 306.066C118.912 327.044 145.639 341.33 174.736 347.118C203.834 352.906 233.994 349.935 261.403 338.582C288.811 327.229 312.238 308.003 328.72 283.336C345.203 258.668 354 229.667 354 200H404Z" stroke="black" stroke-width="6" mask="url(#path-2-inside-1_1_16)"/>
</g>
<g filter="url(#filter2_f_1_16)">
<mask id="path-3-inside-2_1_16" fill="white">
<path d="M104 200C104 180.222 109.865 160.888 120.853 144.443C131.841 127.998 147.459 115.181 165.731 107.612C184.004 100.044 204.111 98.0633 223.509 101.922C242.907 105.78 260.725 115.304 274.71 129.29C288.696 143.275 298.22 161.093 302.078 180.491C305.937 199.889 303.956 219.996 296.388 238.269C288.819 256.541 276.002 272.159 259.557 283.147C243.112 294.135 223.778 300 204 300V275C218.833 275 233.334 270.602 245.667 262.361C258.001 254.119 267.614 242.406 273.291 228.702C278.967 214.997 280.452 199.917 277.559 185.369C274.665 170.82 267.522 157.456 257.033 146.967C246.544 136.478 233.18 129.335 218.631 126.441C204.083 123.548 189.003 125.033 175.298 130.709C161.594 136.386 149.881 145.999 141.639 158.333C133.398 170.666 129 185.167 129 200H104Z"/>
</mask>
<path d="M104 200C104 180.222 109.865 160.888 120.853 144.443C131.841 127.998 147.459 115.181 165.731 107.612C184.004 100.044 204.111 98.0633 223.509 101.922C242.907 105.78 260.725 115.304 274.71 129.29C288.696 143.275 298.22 161.093 302.078 180.491C305.937 199.889 303.956 219.996 296.388 238.269C288.819 256.541 276.002 272.159 259.557 283.147C243.112 294.135 223.778 300 204 300V275C218.833 275 233.334 270.602 245.667 262.361C258.001 254.119 267.614 242.406 273.291 228.702C278.967 214.997 280.452 199.917 277.559 185.369C274.665 170.82 267.522 157.456 257.033 146.967C246.544 136.478 233.18 129.335 218.631 126.441C204.083 123.548 189.003 125.033 175.298 130.709C161.594 136.386 149.881 145.999 141.639 158.333C133.398 170.666 129 185.167 129 200H104Z" fill="#067000"/>
<path d="M104 200C104 180.222 109.865 160.888 120.853 144.443C131.841 127.998 147.459 115.181 165.731 107.612C184.004 100.044 204.111 98.0633 223.509 101.922C242.907 105.78 260.725 115.304 274.71 129.29C288.696 143.275 298.22 161.093 302.078 180.491C305.937 199.889 303.956 219.996 296.388 238.269C288.819 256.541 276.002 272.159 259.557 283.147C243.112 294.135 223.778 300 204 300V275C218.833 275 233.334 270.602 245.667 262.361C258.001 254.119 267.614 242.406 273.291 228.702C278.967 214.997 280.452 199.917 277.559 185.369C274.665 170.82 267.522 157.456 257.033 146.967C246.544 136.478 233.18 129.335 218.631 126.441C204.083 123.548 189.003 125.033 175.298 130.709C161.594 136.386 149.881 145.999 141.639 158.333C133.398 170.666 129 185.167 129 200H104Z" stroke="#00FF44" stroke-width="10" mask="url(#path-3-inside-2_1_16)"/>
</g>
<g filter="url(#filter3_f_1_16)">
<mask id="path-4-inside-3_1_16" fill="white">
<path d="M104 200C104 180.222 109.865 160.888 120.853 144.443C131.841 127.998 147.459 115.181 165.731 107.612C184.004 100.044 204.111 98.0633 223.509 101.922C242.907 105.78 260.725 115.304 274.71 129.29C288.696 143.275 298.22 161.093 302.078 180.491C305.937 199.889 303.956 219.996 296.388 238.269C288.819 256.541 276.002 272.159 259.557 283.147C243.112 294.135 223.778 300 204 300V275C218.833 275 233.334 270.602 245.667 262.361C258.001 254.119 267.614 242.406 273.291 228.702C278.967 214.997 280.452 199.917 277.559 185.369C274.665 170.82 267.522 157.456 257.033 146.967C246.544 136.478 233.18 129.335 218.631 126.441C204.083 123.548 189.003 125.033 175.298 130.709C161.594 136.386 149.881 145.999 141.639 158.333C133.398 170.666 129 185.167 129 200H104Z"/>
</mask>
<path d="M104 200C104 180.222 109.865 160.888 120.853 144.443C131.841 127.998 147.459 115.181 165.731 107.612C184.004 100.044 204.111 98.0633 223.509 101.922C242.907 105.78 260.725 115.304 274.71 129.29C288.696 143.275 298.22 161.093 302.078 180.491C305.937 199.889 303.956 219.996 296.388 238.269C288.819 256.541 276.002 272.159 259.557 283.147C243.112 294.135 223.778 300 204 300V275C218.833 275 233.334 270.602 245.667 262.361C258.001 254.119 267.614 242.406 273.291 228.702C278.967 214.997 280.452 199.917 277.559 185.369C274.665 170.82 267.522 157.456 257.033 146.967C246.544 136.478 233.18 129.335 218.631 126.441C204.083 123.548 189.003 125.033 175.298 130.709C161.594 136.386 149.881 145.999 141.639 158.333C133.398 170.666 129 185.167 129 200H104Z" fill="#067000"/>
<path d="M104 200C104 180.222 109.865 160.888 120.853 144.443C131.841 127.998 147.459 115.181 165.731 107.612C184.004 100.044 204.111 98.0633 223.509 101.922C242.907 105.78 260.725 115.304 274.71 129.29C288.696 143.275 298.22 161.093 302.078 180.491C305.937 199.889 303.956 219.996 296.388 238.269C288.819 256.541 276.002 272.159 259.557 283.147C243.112 294.135 223.778 300 204 300V275C218.833 275 233.334 270.602 245.667 262.361C258.001 254.119 267.614 242.406 273.291 228.702C278.967 214.997 280.452 199.917 277.559 185.369C274.665 170.82 267.522 157.456 257.033 146.967C246.544 136.478 233.18 129.335 218.631 126.441C204.083 123.548 189.003 125.033 175.298 130.709C161.594 136.386 149.881 145.999 141.639 158.333C133.398 170.666 129 185.167 129 200H104Z" stroke="#00FF44" stroke-width="10" mask="url(#path-4-inside-3_1_16)"/>
</g>
<path d="M306.036 195.496C303.549 197.685 303.307 201.476 305.496 203.964L341.17 244.502C343.359 246.99 347.15 247.232 349.638 245.043C352.125 242.854 352.367 239.062 350.178 236.575L318.468 200.541L354.502 168.83C356.99 166.641 357.232 162.85 355.043 160.362C352.854 157.875 349.062 157.633 346.575 159.822L306.036 195.496ZM404.382 200.012L310.382 194.012L309.618 205.988L403.618 211.988L404.382 200.012Z" fill="black"/>
<defs>
<filter id="filter0_i_1_16" x="4" y="0" width="400" height="404" filterUnits="userSpaceOnUse" color-interpolation-filters="sRGB">
<feFlood flood-opacity="0" result="BackgroundImageFix"/>
<feBlend mode="normal" in="SourceGraphic" in2="BackgroundImageFix" result="shape"/>
<feColorMatrix in="SourceAlpha" type="matrix" values="0 0 0 0 0 0 0 0 0 0 0 0 0 0 0 0 0 0 127 0" result="hardAlpha"/>
<feOffset dy="4"/>
<feGaussianBlur stdDeviation="2"/>
<feComposite in2="hardAlpha" operator="arithmetic" k2="-1" k3="1"/>
<feColorMatrix type="matrix" values="0 0 0 0 0 0 0 0 0 0 0 0 0 0 0 0 0 0 0.25 0"/>
<feBlend mode="normal" in2="shape" result="effect1_innerShadow_1_16"/>
</filter>
<filter id="filter1_d_1_16" x="-6.10352e-05" y="0" width="408" height="408" filterUnits="userSpaceOnUse" color-interpolation-filters="sRGB">
<feFlood flood-opacity="0" result="BackgroundImageFix"/>
<feColorMatrix in="SourceAlpha" type="matrix" values="0 0 0 0 0 0 0 0 0 0 0 0 0 0 0 0 0 0 127 0" result="hardAlpha"/>
<feOffset dy="4"/>
<feGaussianBlur stdDeviation="2"/>
<feComposite in2="hardAlpha" operator="out"/>
<feColorMatrix type="matrix" values="0 0 0 0 0 0 0 0 0 0 0 0 0 0 0 0 0 0 0.25 0"/>
<feBlend mode="normal" in2="BackgroundImageFix" result="effect1_dropShadow_1_16"/>
<feBlend mode="normal" in="SourceGraphic" in2="effect1_dropShadow_1_16" result="shape"/>
</filter>
<filter id="filter2_f_1_16" x="99.9997" y="96.0003" width="208" height="208" filterUnits="userSpaceOnUse" color-interpolation-filters="sRGB">
<feFlood flood-opacity="0" result="BackgroundImageFix"/>
<feBlend mode="normal" in="SourceGraphic" in2="BackgroundImageFix" result="shape"/>
<feGaussianBlur stdDeviation="2" result="effect1_foregroundBlur_1_16"/>
</filter>
<filter id="filter3_f_1_16" x="99.9997" y="96.0003" width="208" height="208" filterUnits="userSpaceOnUse" color-interpolation-filters="sRGB">
<feFlood flood-opacity="0" result="BackgroundImageFix"/>
<feBlend mode="normal" in="SourceGraphic" in2="BackgroundImageFix" result="shape"/>
<feGaussianBlur stdDeviation="2" result="effect1_foregroundBlur_1_16"/>
</filter>
</defs>
</svg>
